<?xml version="1.0" standalone="no"?>
<!DOCTYPE svg PUBLIC "-//W3C//DTD SVG 20010904//EN"
 "http://www.w3.org/TR/2001/REC-SVG-20010904/DTD/svg10.dtd">
<svg version="1.0" xmlns="http://www.w3.org/2000/svg"
 width="247.000000pt" height="183.000000pt" viewBox="0 0 247.000000 183.000000"
 preserveAspectRatio="xMidYMid meet">

<g transform="translate(0.000000,183.000000) scale(0.100000,-0.100000)"
fill="#000000" stroke="none">
<path d="M1155 1800 c-194 -31 -354 -181 -399 -374 -18 -74 -16 -113 4 -101 5
3 10 21 10 38 1 122 107 284 235 357 267 153 627 -10 686 -311 7 -34 16 -56
21 -53 18 11 1 92 -35 168 -68 143 -211 251 -367 276 -72 11 -83 11 -155 0z"/>
<path d="M1130 1460 c0 -5 -10 -10 -22 -10 -21 -1 -21 -2 -5 -11 10 -6 17 -22
17 -40 0 -38 -34 -70 -120 -112 -88 -43 -163 -44 -234 -4 -28 16 -53 24 -58
19 -14 -14 34 -40 103 -58 95 -24 173 -3 267 73 l42 34 0 -53 c0 -31 6 -63 14
-73 12 -17 16 -18 32 -5 9 8 30 33 46 54 l28 39 0 -39 c0 -74 37 -77 84 -7
l25 36 10 -26 c17 -43 55 -31 86 28 l17 30 -5 -48 c-5 -55 0 -87 16 -87 5 0
29 18 53 40 45 41 55 44 152 40 53 -2 95 22 90 52 -2 12 -9 23 -17 26 -10 3
-11 -2 -6 -18 10 -31 -8 -40 -83 -40 -62 0 -105 -13 -150 -46 l-24 -18 8 84
c7 82 6 83 -15 77 -11 -3 -24 -1 -27 4 -10 17 -50 9 -71 -13 -11 -13 -25 -37
-32 -54 -7 -18 -25 -44 -41 -59 l-29 -28 -6 24 c-3 13 -4 35 -1 49 2 14 5 42
5 63 1 25 6 37 15 37 18 0 76 49 60 50 -6 0 -17 -7 -24 -15 -7 -8 -21 -15 -31
-15 -11 0 -19 7 -19 15 0 18 -21 20 -39 3 -11 -11 -12 -10 -5 2 6 12 2 11 -19
-2 -32 -22 -57 -23 -57 -3 0 8 -7 15 -15 15 -8 0 -15 -4 -15 -10z m108 -73 c3
-39 -2 -55 -25 -87 -46 -65 -53 -60 -53 33 0 81 1 83 28 94 40 16 47 11 50
-40z m222 -3 c0 -20 -45 -104 -56 -104 -21 0 -17 54 7 84 18 23 49 36 49 20z"/>
<path d="M1696 1234 c-3 -9 -6 -23 -6 -33 0 -28 -66 -154 -104 -197 -136 -157
-383 -203 -572 -106 -94 48 -197 171 -224 266 -7 25 -19 51 -28 58 -14 11 -15
9 -9 -22 13 -65 75 -176 131 -232 223 -223 586 -186 761 77 52 79 93 205 66
205 -5 0 -12 -7 -15 -16z"/>
<path d="M357 554 c-15 -16 -5 -24 28 -24 l35 0 0 -91 c0 -68 3 -90 13 -87 8
3 13 33 15 91 l3 87 30 0 c20 0 29 4 27 13 -5 13 -139 23 -151 11z"/>
<path d="M1257 553 c-16 -4 -17 -15 -15 -100 2 -66 7 -98 16 -101 8 -2 12 10
12 42 0 25 4 46 9 46 5 0 27 -20 49 -45 22 -25 45 -45 51 -45 17 0 13 10 -19
47 -34 38 -36 46 -15 63 21 17 19 67 -2 78 -26 13 -65 20 -86 15z m73 -42 c12
-23 -10 -51 -41 -51 -15 0 -19 7 -19 35 0 31 3 35 25 35 14 0 29 -8 35 -19z"/>
<path d="M1993 553 c-74 -14 -100 -117 -44 -174 22 -21 39 -29 66 -29 85 0
129 113 69 174 -15 14 -30 26 -35 26 -4 0 -13 2 -21 4 -7 2 -23 1 -35 -1z m71
-45 c21 -29 20 -92 0 -112 -25 -25 -82 -24 -101 2 -19 23 -16 92 4 114 23 26
78 24 97 -4z"/>
<path d="M653 535 c-32 -22 -47 -77 -33 -119 22 -67 102 -88 152 -41 47 43 49
106 6 153 -26 26 -92 30 -125 7z m107 -25 c25 -25 26 -80 2 -110 -20 -25 -72
-30 -96 -10 -30 24 -25 112 7 132 22 14 67 8 87 -12z"/>
<path d="M942 469 c3 -70 6 -83 27 -100 32 -27 77 -24 106 6 22 21 25 33 25
100 0 60 -3 75 -15 75 -12 0 -15 -15 -15 -72 0 -83 -5 -94 -41 -103 -44 -11
-59 15 -59 101 0 61 -3 74 -16 74 -14 0 -16 -12 -12 -81z"/>
<path d="M1660 540 c0 -5 14 -10 30 -10 l30 0 0 -90 c0 -73 3 -90 15 -90 12 0
15 17 15 90 l0 90 30 0 c17 0 30 5 30 10 0 6 -32 10 -75 10 -43 0 -75 -4 -75
-10z"/>
<path d="M86 238 c-32 -75 -66 -162 -66 -165 0 -2 6 -3 14 -3 7 0 19 14 26 30
11 27 17 30 57 30 40 0 45 -3 54 -30 7 -19 18 -30 29 -30 16 0 13 12 -25 98
-25 54 -51 98 -60 100 -10 2 -20 -9 -29 -30z m48 -55 c6 -20 4 -23 -18 -23
-29 0 -31 7 -14 45 12 27 19 23 32 -22z"/>
<path d="M320 255 c0 -11 12 -15 51 -15 l50 0 -55 -79 c-31 -43 -56 -82 -56
-85 0 -3 34 -6 75 -6 43 0 75 4 75 10 0 6 -25 10 -55 10 -64 0 -65 -7 10 99
25 34 42 67 39 72 -3 5 -34 9 -70 9 -50 0 -64 -3 -64 -15z"/>
<path d="M590 170 l0 -100 60 0 c33 0 60 4 60 10 0 6 -20 10 -45 10 -45 0 -45
0 -45 35 0 32 2 35 30 35 20 0 30 5 30 15 0 10 -10 15 -30 15 -25 0 -30 4 -30
25 0 23 4 25 40 25 29 0 40 4 40 15 0 12 -13 15 -55 15 l-55 0 0 -100z"/>
<path d="M840 170 c0 -82 3 -100 15 -100 11 0 15 11 15 40 0 22 4 40 9 40 5 0
25 -18 45 -40 50 -55 79 -54 32 2 -35 40 -35 42 -16 55 28 19 26 67 -2 87 -12
9 -39 16 -60 16 l-38 0 0 -100z m85 40 c0 -20 -6 -26 -27 -28 -25 -3 -28 0
-28 28 0 28 3 31 28 28 21 -2 27 -8 27 -28z"/>
<path d="M1110 164 l0 -107 45 6 c25 2 55 13 65 22 23 21 26 58 6 74 -10 8
-13 23 -9 45 4 27 1 36 -18 50 -13 9 -38 16 -56 16 l-33 0 0 -106z m78 55 c-2
-12 -13 -26 -25 -30 -21 -7 -23 -5 -23 21 0 26 4 30 26 30 20 0 25 -4 22 -21z
m6 -65 c35 -14 11 -64 -31 -64 -20 0 -23 5 -23 35 0 36 15 44 54 29z"/>
<path d="M1423 258 c-11 -14 -73 -168 -73 -180 0 -21 27 -4 37 22 10 27 15 30
56 30 41 0 46 -3 56 -30 5 -17 17 -30 25 -30 9 0 16 2 16 5 0 16 -90 195 -98
195 -5 0 -14 -6 -19 -12z m35 -68 c11 -29 10 -30 -18 -30 -28 0 -28 1 -18 35
13 39 22 38 36 -5z"/>
<path d="M1660 170 c0 -82 3 -100 15 -100 12 0 15 18 15 100 0 82 -3 100 -15
100 -12 0 -15 -18 -15 -100z"/>
<path d="M1830 166 c0 -80 -3 -106 -15 -116 -19 -16 -19 -30 -1 -30 33 0 46
41 46 147 0 85 -3 103 -15 103 -12 0 -15 -18 -15 -104z"/>
<path d="M2051 248 c-5 -13 -19 -48 -31 -78 -42 -104 -41 -100 -24 -100 8 0
20 14 25 30 10 27 15 30 55 30 41 0 46 -3 55 -30 7 -19 18 -30 29 -30 17 0 14
12 -24 98 -45 100 -68 123 -85 80z m49 -75 c0 -7 -11 -13 -25 -13 -29 0 -28
-2 -14 40 l12 33 13 -24 c7 -13 13 -30 14 -36z"/>
<path d="M2290 170 c0 -81 3 -100 15 -100 11 0 15 17 17 73 l3 72 45 -73 c28
-45 51 -72 62 -72 16 0 18 11 18 100 0 81 -3 100 -15 100 -11 0 -15 -17 -17
-75 l-3 -75 -45 75 c-28 47 -51 75 -62 75 -16 0 -18 -11 -18 -100z"/>
</g>
</svg>
